<mxfile host="app.diagrams.net" modified="2023-06-09T23:40:25.042Z" agent="Mozilla/5.0 (X11; Linux x86_64) AppleWebKit/537.36 (KHTML, like Gecko) Chrome/114.0.0.0 Safari/537.36" etag="sSK_IZ6E8oq4i0CINSk4" version="21.3.7" type="device">
  <diagram name="Page-1" id="9uEI_o1jSFQKAdZgtg52">
    <mxGraphModel dx="1362" dy="774" grid="1" gridSize="10" guides="1" tooltips="1" connect="1" arrows="1" fold="1" page="1" pageScale="1" pageWidth="850" pageHeight="1100" math="0" shadow="0">
      <root>
        <mxCell id="0" />
        <mxCell id="1" parent="0" />
        <mxCell id="X7CRMqkfVBuR3V3xRcWx-10" value="&lt;b&gt;&lt;font style=&quot;font-size: 20px;&quot;&gt;IP&lt;/font&gt;&lt;/b&gt;" style="shape=ext;double=1;rounded=1;whiteSpace=wrap;html=1;" vertex="1" parent="1">
          <mxGeometry x="260" y="300" width="80" height="40" as="geometry" />
        </mxCell>
        <mxCell id="X7CRMqkfVBuR3V3xRcWx-24" value="&lt;b&gt;&lt;font style=&quot;font-size: 20px;&quot;&gt;IP&lt;/font&gt;&lt;/b&gt;" style="shape=ext;double=1;rounded=1;whiteSpace=wrap;html=1;" vertex="1" parent="1">
          <mxGeometry x="377.5" y="300" width="80" height="40" as="geometry" />
        </mxCell>
        <mxCell id="X7CRMqkfVBuR3V3xRcWx-25" value="&lt;b&gt;&lt;font style=&quot;font-size: 20px;&quot;&gt;IP&lt;/font&gt;&lt;/b&gt;" style="shape=ext;double=1;rounded=1;whiteSpace=wrap;html=1;" vertex="1" parent="1">
          <mxGeometry x="500" y="300" width="80" height="40" as="geometry" />
        </mxCell>
        <mxCell id="X7CRMqkfVBuR3V3xRcWx-26" value="&lt;b&gt;&lt;font style=&quot;font-size: 20px;&quot;&gt;IP&lt;/font&gt;&lt;/b&gt;" style="shape=ext;double=1;rounded=1;whiteSpace=wrap;html=1;" vertex="1" parent="1">
          <mxGeometry x="620" y="300" width="80" height="40" as="geometry" />
        </mxCell>
        <mxCell id="X7CRMqkfVBuR3V3xRcWx-27" value="" style="rounded=1;whiteSpace=wrap;html=1;arcSize=10;" vertex="1" parent="1">
          <mxGeometry x="200" y="360" width="560" height="200" as="geometry" />
        </mxCell>
        <mxCell id="X7CRMqkfVBuR3V3xRcWx-68" value="&lt;b&gt;&lt;font style=&quot;font-size: 20px;&quot;&gt;IP&lt;/font&gt;&lt;/b&gt;" style="shape=ext;double=1;rounded=1;whiteSpace=wrap;html=1;" vertex="1" parent="1">
          <mxGeometry x="200" y="580" width="80" height="40" as="geometry" />
        </mxCell>
        <mxCell id="X7CRMqkfVBuR3V3xRcWx-69" value="&lt;b&gt;&lt;font style=&quot;font-size: 20px;&quot;&gt;IP&lt;/font&gt;&lt;/b&gt;" style="shape=ext;double=1;rounded=1;whiteSpace=wrap;html=1;" vertex="1" parent="1">
          <mxGeometry x="320" y="580" width="80" height="40" as="geometry" />
        </mxCell>
        <mxCell id="X7CRMqkfVBuR3V3xRcWx-70" value="&lt;b&gt;&lt;font style=&quot;font-size: 20px;&quot;&gt;IP&lt;/font&gt;&lt;/b&gt;" style="shape=ext;double=1;rounded=1;whiteSpace=wrap;html=1;" vertex="1" parent="1">
          <mxGeometry x="440" y="580" width="80" height="40" as="geometry" />
        </mxCell>
        <mxCell id="X7CRMqkfVBuR3V3xRcWx-71" value="&lt;b&gt;&lt;font style=&quot;font-size: 20px;&quot;&gt;IP&lt;/font&gt;&lt;/b&gt;" style="shape=ext;double=1;rounded=1;whiteSpace=wrap;html=1;" vertex="1" parent="1">
          <mxGeometry x="560" y="580" width="80" height="40" as="geometry" />
        </mxCell>
        <mxCell id="X7CRMqkfVBuR3V3xRcWx-72" value="&lt;b&gt;&lt;font style=&quot;font-size: 20px;&quot;&gt;IP&lt;/font&gt;&lt;/b&gt;" style="shape=ext;double=1;rounded=1;whiteSpace=wrap;html=1;" vertex="1" parent="1">
          <mxGeometry x="680" y="580" width="80" height="40" as="geometry" />
        </mxCell>
        <mxCell id="X7CRMqkfVBuR3V3xRcWx-100" value="" style="ellipse;shape=doubleEllipse;whiteSpace=wrap;html=1;aspect=fixed;fillColor=#fff2cc;strokeColor=#000000;" vertex="1" parent="1">
          <mxGeometry x="291.25" y="410" width="17.5" height="17.5" as="geometry" />
        </mxCell>
        <mxCell id="X7CRMqkfVBuR3V3xRcWx-101" value="" style="ellipse;shape=doubleEllipse;whiteSpace=wrap;html=1;aspect=fixed;fillColor=#fff2cc;strokeColor=#000000;" vertex="1" parent="1">
          <mxGeometry x="408.75" y="410" width="17.5" height="17.5" as="geometry" />
        </mxCell>
        <mxCell id="X7CRMqkfVBuR3V3xRcWx-112" value="" style="ellipse;shape=doubleEllipse;whiteSpace=wrap;html=1;aspect=fixed;fillColor=#fff2cc;strokeColor=#000000;" vertex="1" parent="1">
          <mxGeometry x="231.25" y="491.25" width="17.5" height="17.5" as="geometry" />
        </mxCell>
        <mxCell id="X7CRMqkfVBuR3V3xRcWx-113" value="" style="ellipse;shape=doubleEllipse;whiteSpace=wrap;html=1;aspect=fixed;fillColor=#fff2cc;strokeColor=#000000;" vertex="1" parent="1">
          <mxGeometry x="351.25" y="491.25" width="17.5" height="17.5" as="geometry" />
        </mxCell>
        <mxCell id="X7CRMqkfVBuR3V3xRcWx-118" value="" style="endArrow=none;html=1;rounded=0;entryX=0.5;entryY=1;entryDx=0;entryDy=0;exitX=0.5;exitY=0;exitDx=0;exitDy=0;" edge="1" parent="1" source="X7CRMqkfVBuR3V3xRcWx-100" target="X7CRMqkfVBuR3V3xRcWx-10">
          <mxGeometry width="50" height="50" relative="1" as="geometry">
            <mxPoint x="340" y="450" as="sourcePoint" />
            <mxPoint x="390" y="400" as="targetPoint" />
          </mxGeometry>
        </mxCell>
        <mxCell id="X7CRMqkfVBuR3V3xRcWx-121" value="" style="endArrow=none;html=1;rounded=0;entryX=0.5;entryY=1;entryDx=0;entryDy=0;exitX=0.5;exitY=0;exitDx=0;exitDy=0;" edge="1" parent="1" source="X7CRMqkfVBuR3V3xRcWx-101" target="X7CRMqkfVBuR3V3xRcWx-24">
          <mxGeometry width="50" height="50" relative="1" as="geometry">
            <mxPoint x="327.75" y="370" as="sourcePoint" />
            <mxPoint x="327.75" y="350" as="targetPoint" />
          </mxGeometry>
        </mxCell>
        <mxCell id="X7CRMqkfVBuR3V3xRcWx-123" value="" style="endArrow=none;html=1;rounded=0;entryX=0.5;entryY=1;entryDx=0;entryDy=0;exitX=0.5;exitY=0;exitDx=0;exitDy=0;" edge="1" parent="1" source="X7CRMqkfVBuR3V3xRcWx-140">
          <mxGeometry width="50" height="50" relative="1" as="geometry">
            <mxPoint x="539.83" y="360" as="sourcePoint" />
            <mxPoint x="539.83" y="340" as="targetPoint" />
          </mxGeometry>
        </mxCell>
        <mxCell id="X7CRMqkfVBuR3V3xRcWx-124" value="" style="endArrow=none;html=1;rounded=0;entryX=0.5;entryY=1;entryDx=0;entryDy=0;exitX=0.5;exitY=0;exitDx=0;exitDy=0;" edge="1" parent="1" source="X7CRMqkfVBuR3V3xRcWx-141">
          <mxGeometry width="50" height="50" relative="1" as="geometry">
            <mxPoint x="659.82" y="360" as="sourcePoint" />
            <mxPoint x="659.82" y="340" as="targetPoint" />
          </mxGeometry>
        </mxCell>
        <mxCell id="X7CRMqkfVBuR3V3xRcWx-125" value="" style="endArrow=none;html=1;rounded=0;entryX=0.5;entryY=1;entryDx=0;entryDy=0;exitX=0.5;exitY=0;exitDx=0;exitDy=0;" edge="1" parent="1" target="X7CRMqkfVBuR3V3xRcWx-143">
          <mxGeometry width="50" height="50" relative="1" as="geometry">
            <mxPoint x="599.84" y="580" as="sourcePoint" />
            <mxPoint x="599.84" y="560" as="targetPoint" />
          </mxGeometry>
        </mxCell>
        <mxCell id="X7CRMqkfVBuR3V3xRcWx-126" value="" style="endArrow=none;html=1;rounded=0;entryX=0.5;entryY=1;entryDx=0;entryDy=0;exitX=0.5;exitY=0;exitDx=0;exitDy=0;" edge="1" parent="1" target="X7CRMqkfVBuR3V3xRcWx-144">
          <mxGeometry width="50" height="50" relative="1" as="geometry">
            <mxPoint x="719.84" y="580" as="sourcePoint" />
            <mxPoint x="719.84" y="560" as="targetPoint" />
          </mxGeometry>
        </mxCell>
        <mxCell id="X7CRMqkfVBuR3V3xRcWx-127" value="" style="endArrow=none;html=1;rounded=0;entryX=0.5;entryY=1;entryDx=0;entryDy=0;exitX=0.5;exitY=0;exitDx=0;exitDy=0;" edge="1" parent="1" target="X7CRMqkfVBuR3V3xRcWx-112">
          <mxGeometry width="50" height="50" relative="1" as="geometry">
            <mxPoint x="239.83000000000004" y="580" as="sourcePoint" />
            <mxPoint x="239.83000000000004" y="560" as="targetPoint" />
          </mxGeometry>
        </mxCell>
        <mxCell id="X7CRMqkfVBuR3V3xRcWx-128" value="" style="endArrow=none;html=1;rounded=0;entryX=0.5;entryY=1;entryDx=0;entryDy=0;exitX=0.5;exitY=0;exitDx=0;exitDy=0;" edge="1" parent="1" target="X7CRMqkfVBuR3V3xRcWx-113">
          <mxGeometry width="50" height="50" relative="1" as="geometry">
            <mxPoint x="359.83000000000004" y="580" as="sourcePoint" />
            <mxPoint x="359.83000000000004" y="560" as="targetPoint" />
          </mxGeometry>
        </mxCell>
        <mxCell id="X7CRMqkfVBuR3V3xRcWx-129" value="" style="endArrow=none;html=1;rounded=0;entryX=0.5;entryY=1;entryDx=0;entryDy=0;exitX=0.5;exitY=0;exitDx=0;exitDy=0;" edge="1" parent="1" target="X7CRMqkfVBuR3V3xRcWx-142">
          <mxGeometry width="50" height="50" relative="1" as="geometry">
            <mxPoint x="479.83000000000004" y="580" as="sourcePoint" />
            <mxPoint x="479.83000000000004" y="560" as="targetPoint" />
          </mxGeometry>
        </mxCell>
        <mxCell id="X7CRMqkfVBuR3V3xRcWx-140" value="" style="ellipse;shape=doubleEllipse;whiteSpace=wrap;html=1;aspect=fixed;fillColor=#fff2cc;strokeColor=#000000;" vertex="1" parent="1">
          <mxGeometry x="531.25" y="410" width="17.5" height="17.5" as="geometry" />
        </mxCell>
        <mxCell id="X7CRMqkfVBuR3V3xRcWx-141" value="" style="ellipse;shape=doubleEllipse;whiteSpace=wrap;html=1;aspect=fixed;fillColor=#fff2cc;strokeColor=#000000;" vertex="1" parent="1">
          <mxGeometry x="651.25" y="410" width="17.5" height="17.5" as="geometry" />
        </mxCell>
        <mxCell id="X7CRMqkfVBuR3V3xRcWx-142" value="" style="ellipse;shape=doubleEllipse;whiteSpace=wrap;html=1;aspect=fixed;fillColor=#fff2cc;strokeColor=#000000;" vertex="1" parent="1">
          <mxGeometry x="471.25" y="491.25" width="17.5" height="17.5" as="geometry" />
        </mxCell>
        <mxCell id="X7CRMqkfVBuR3V3xRcWx-143" value="" style="ellipse;shape=doubleEllipse;whiteSpace=wrap;html=1;aspect=fixed;fillColor=#fff2cc;strokeColor=#000000;" vertex="1" parent="1">
          <mxGeometry x="591.25" y="491.25" width="17.5" height="17.5" as="geometry" />
        </mxCell>
        <mxCell id="X7CRMqkfVBuR3V3xRcWx-144" value="" style="ellipse;shape=doubleEllipse;whiteSpace=wrap;html=1;aspect=fixed;fillColor=#fff2cc;strokeColor=#000000;" vertex="1" parent="1">
          <mxGeometry x="711.25" y="491.25" width="17.5" height="17.5" as="geometry" />
        </mxCell>
        <mxCell id="X7CRMqkfVBuR3V3xRcWx-73" value="" style="rounded=0;whiteSpace=wrap;html=1;strokeColor=#000000;" vertex="1" parent="1">
          <mxGeometry x="280" y="360" width="40" height="10" as="geometry" />
        </mxCell>
        <mxCell id="X7CRMqkfVBuR3V3xRcWx-83" value="" style="rounded=0;whiteSpace=wrap;html=1;fillColor=#fff2cc;strokeColor=#000000;" vertex="1" parent="1">
          <mxGeometry x="280" y="370" width="40" height="10" as="geometry" />
        </mxCell>
        <mxCell id="X7CRMqkfVBuR3V3xRcWx-84" value="" style="rounded=0;whiteSpace=wrap;html=1;strokeColor=#000000;" vertex="1" parent="1">
          <mxGeometry x="397.5" y="360" width="40" height="10" as="geometry" />
        </mxCell>
        <mxCell id="X7CRMqkfVBuR3V3xRcWx-85" value="" style="rounded=0;whiteSpace=wrap;html=1;fillColor=#fff2cc;strokeColor=#000000;" vertex="1" parent="1">
          <mxGeometry x="397.5" y="370" width="40" height="10" as="geometry" />
        </mxCell>
        <mxCell id="X7CRMqkfVBuR3V3xRcWx-92" value="" style="rounded=0;whiteSpace=wrap;html=1;strokeColor=#000000;" vertex="1" parent="1">
          <mxGeometry x="520" y="360" width="40" height="10" as="geometry" />
        </mxCell>
        <mxCell id="X7CRMqkfVBuR3V3xRcWx-93" value="" style="rounded=0;whiteSpace=wrap;html=1;fillColor=#fff2cc;strokeColor=#000000;" vertex="1" parent="1">
          <mxGeometry x="520" y="370" width="40" height="10" as="geometry" />
        </mxCell>
        <mxCell id="X7CRMqkfVBuR3V3xRcWx-94" value="" style="rounded=0;whiteSpace=wrap;html=1;strokeColor=#000000;" vertex="1" parent="1">
          <mxGeometry x="640" y="360" width="40" height="10" as="geometry" />
        </mxCell>
        <mxCell id="X7CRMqkfVBuR3V3xRcWx-95" value="" style="rounded=0;whiteSpace=wrap;html=1;fillColor=#fff2cc;strokeColor=#000000;" vertex="1" parent="1">
          <mxGeometry x="640" y="370" width="40" height="10" as="geometry" />
        </mxCell>
        <mxCell id="X7CRMqkfVBuR3V3xRcWx-86" value="" style="rounded=0;whiteSpace=wrap;html=1;fillColor=#fff2cc;strokeColor=#000000;" vertex="1" parent="1">
          <mxGeometry x="220" y="540" width="40" height="10" as="geometry" />
        </mxCell>
        <mxCell id="X7CRMqkfVBuR3V3xRcWx-87" value="" style="rounded=0;whiteSpace=wrap;html=1;strokeColor=#000000;" vertex="1" parent="1">
          <mxGeometry x="220" y="550" width="40" height="10" as="geometry" />
        </mxCell>
        <mxCell id="X7CRMqkfVBuR3V3xRcWx-88" value="" style="rounded=0;whiteSpace=wrap;html=1;fillColor=#fff2cc;strokeColor=#000000;" vertex="1" parent="1">
          <mxGeometry x="340" y="540" width="40" height="10" as="geometry" />
        </mxCell>
        <mxCell id="X7CRMqkfVBuR3V3xRcWx-89" value="" style="rounded=0;whiteSpace=wrap;html=1;strokeColor=#000000;" vertex="1" parent="1">
          <mxGeometry x="340" y="550" width="40" height="10" as="geometry" />
        </mxCell>
        <mxCell id="X7CRMqkfVBuR3V3xRcWx-90" value="" style="rounded=0;whiteSpace=wrap;html=1;fillColor=#fff2cc;strokeColor=#000000;" vertex="1" parent="1">
          <mxGeometry x="460" y="540" width="40" height="10" as="geometry" />
        </mxCell>
        <mxCell id="X7CRMqkfVBuR3V3xRcWx-91" value="" style="rounded=0;whiteSpace=wrap;html=1;strokeColor=#000000;" vertex="1" parent="1">
          <mxGeometry x="460" y="550" width="40" height="10" as="geometry" />
        </mxCell>
        <mxCell id="X7CRMqkfVBuR3V3xRcWx-96" value="" style="rounded=0;whiteSpace=wrap;html=1;fillColor=#fff2cc;strokeColor=#000000;" vertex="1" parent="1">
          <mxGeometry x="580" y="540" width="40" height="10" as="geometry" />
        </mxCell>
        <mxCell id="X7CRMqkfVBuR3V3xRcWx-97" value="" style="rounded=0;whiteSpace=wrap;html=1;strokeColor=#000000;" vertex="1" parent="1">
          <mxGeometry x="580" y="550" width="40" height="10" as="geometry" />
        </mxCell>
        <mxCell id="X7CRMqkfVBuR3V3xRcWx-98" value="" style="rounded=0;whiteSpace=wrap;html=1;fillColor=#fff2cc;strokeColor=#000000;" vertex="1" parent="1">
          <mxGeometry x="700" y="540" width="40" height="10" as="geometry" />
        </mxCell>
        <mxCell id="X7CRMqkfVBuR3V3xRcWx-99" value="" style="rounded=0;whiteSpace=wrap;html=1;strokeColor=#000000;" vertex="1" parent="1">
          <mxGeometry x="700" y="550" width="40" height="10" as="geometry" />
        </mxCell>
        <mxCell id="X7CRMqkfVBuR3V3xRcWx-149" value="" style="endArrow=none;html=1;rounded=0;exitX=1;exitY=0;exitDx=0;exitDy=0;entryX=0;entryY=1;entryDx=0;entryDy=0;strokeColor=#000000;" edge="1" parent="1" source="X7CRMqkfVBuR3V3xRcWx-142" target="X7CRMqkfVBuR3V3xRcWx-140">
          <mxGeometry width="50" height="50" relative="1" as="geometry">
            <mxPoint x="500" y="500" as="sourcePoint" />
            <mxPoint x="550" y="450" as="targetPoint" />
          </mxGeometry>
        </mxCell>
        <mxCell id="X7CRMqkfVBuR3V3xRcWx-150" value="" style="endArrow=none;html=1;rounded=0;exitX=0;exitY=0.5;exitDx=0;exitDy=0;entryX=1;entryY=1;entryDx=0;entryDy=0;strokeColor=#000000;" edge="1" parent="1" source="X7CRMqkfVBuR3V3xRcWx-144" target="X7CRMqkfVBuR3V3xRcWx-140">
          <mxGeometry width="50" height="50" relative="1" as="geometry">
            <mxPoint x="496" y="504" as="sourcePoint" />
            <mxPoint x="544" y="435" as="targetPoint" />
          </mxGeometry>
        </mxCell>
        <mxCell id="X7CRMqkfVBuR3V3xRcWx-151" value="" style="endArrow=none;html=1;rounded=0;entryX=0.5;entryY=1;entryDx=0;entryDy=0;exitX=0;exitY=0;exitDx=0;exitDy=0;strokeColor=#000000;" edge="1" parent="1" source="X7CRMqkfVBuR3V3xRcWx-143" target="X7CRMqkfVBuR3V3xRcWx-140">
          <mxGeometry width="50" height="50" relative="1" as="geometry">
            <mxPoint x="500" y="500" as="sourcePoint" />
            <mxPoint x="550" y="450" as="targetPoint" />
          </mxGeometry>
        </mxCell>
        <mxCell id="X7CRMqkfVBuR3V3xRcWx-152" value="" style="endArrow=none;html=1;rounded=0;entryX=0;entryY=1;entryDx=0;entryDy=0;exitX=1;exitY=0;exitDx=0;exitDy=0;strokeColor=#000000;" edge="1" parent="1" source="X7CRMqkfVBuR3V3xRcWx-143" target="X7CRMqkfVBuR3V3xRcWx-141">
          <mxGeometry width="50" height="50" relative="1" as="geometry">
            <mxPoint x="500" y="500" as="sourcePoint" />
            <mxPoint x="550" y="450" as="targetPoint" />
          </mxGeometry>
        </mxCell>
        <mxCell id="X7CRMqkfVBuR3V3xRcWx-153" value="" style="endArrow=none;html=1;rounded=0;entryX=1;entryY=1;entryDx=0;entryDy=0;exitX=0;exitY=0;exitDx=0;exitDy=0;strokeColor=#000000;" edge="1" parent="1" source="X7CRMqkfVBuR3V3xRcWx-144" target="X7CRMqkfVBuR3V3xRcWx-141">
          <mxGeometry width="50" height="50" relative="1" as="geometry">
            <mxPoint x="500" y="500" as="sourcePoint" />
            <mxPoint x="550" y="450" as="targetPoint" />
          </mxGeometry>
        </mxCell>
        <mxCell id="X7CRMqkfVBuR3V3xRcWx-154" value="" style="endArrow=none;html=1;rounded=0;exitX=1;exitY=0;exitDx=0;exitDy=0;entryX=0;entryY=1;entryDx=0;entryDy=0;strokeColor=#000000;" edge="1" parent="1" source="X7CRMqkfVBuR3V3xRcWx-112" target="X7CRMqkfVBuR3V3xRcWx-100">
          <mxGeometry width="50" height="50" relative="1" as="geometry">
            <mxPoint x="500" y="500" as="sourcePoint" />
            <mxPoint x="550" y="450" as="targetPoint" />
          </mxGeometry>
        </mxCell>
        <mxCell id="X7CRMqkfVBuR3V3xRcWx-155" value="" style="endArrow=none;html=1;rounded=0;exitX=0;exitY=0;exitDx=0;exitDy=0;entryX=1;entryY=1;entryDx=0;entryDy=0;strokeColor=#000000;" edge="1" parent="1" source="X7CRMqkfVBuR3V3xRcWx-142" target="X7CRMqkfVBuR3V3xRcWx-100">
          <mxGeometry width="50" height="50" relative="1" as="geometry">
            <mxPoint x="500" y="500" as="sourcePoint" />
            <mxPoint x="300" y="420" as="targetPoint" />
          </mxGeometry>
        </mxCell>
        <mxCell id="X7CRMqkfVBuR3V3xRcWx-156" value="" style="endArrow=none;html=1;rounded=0;exitX=1;exitY=0.5;exitDx=0;exitDy=0;entryX=0;entryY=0.5;entryDx=0;entryDy=0;strokeColor=#000000;" edge="1" parent="1" source="X7CRMqkfVBuR3V3xRcWx-112" target="X7CRMqkfVBuR3V3xRcWx-101">
          <mxGeometry width="50" height="50" relative="1" as="geometry">
            <mxPoint x="470" y="480" as="sourcePoint" />
            <mxPoint x="520" y="430" as="targetPoint" />
          </mxGeometry>
        </mxCell>
        <mxCell id="X7CRMqkfVBuR3V3xRcWx-157" value="" style="endArrow=none;html=1;rounded=0;exitX=1;exitY=0;exitDx=0;exitDy=0;entryX=0.5;entryY=1;entryDx=0;entryDy=0;strokeColor=#000000;" edge="1" parent="1" source="X7CRMqkfVBuR3V3xRcWx-113" target="X7CRMqkfVBuR3V3xRcWx-101">
          <mxGeometry width="50" height="50" relative="1" as="geometry">
            <mxPoint x="470" y="480" as="sourcePoint" />
            <mxPoint x="520" y="430" as="targetPoint" />
          </mxGeometry>
        </mxCell>
        <mxCell id="X7CRMqkfVBuR3V3xRcWx-158" value="&lt;div style=&quot;&quot;&gt;&lt;b style=&quot;background-color: initial; border-color: var(--border-color);&quot;&gt;&lt;font style=&quot;border-color: var(--border-color); font-size: 15px;&quot;&gt;&amp;nbsp; Managers&lt;/font&gt;&lt;/b&gt;&lt;/div&gt;" style="rounded=1;whiteSpace=wrap;html=1;fillColor=none;dashed=1;align=left;" vertex="1" parent="1">
          <mxGeometry x="80" y="290" width="720" height="60" as="geometry" />
        </mxCell>
        <mxCell id="X7CRMqkfVBuR3V3xRcWx-159" value="&lt;div style=&quot;&quot;&gt;&lt;/div&gt;&lt;b style=&quot;border-color: var(--border-color); text-align: center;&quot;&gt;&lt;div style=&quot;text-align: left;&quot;&gt;&lt;b style=&quot;background-color: initial; border-color: var(--border-color);&quot;&gt;&lt;font style=&quot;border-color: var(--border-color); font-size: 15px;&quot;&gt;&amp;nbsp; Subordinates&lt;/font&gt;&lt;/b&gt;&lt;/div&gt;&lt;/b&gt;" style="rounded=1;whiteSpace=wrap;html=1;fillColor=none;dashed=1;align=left;" vertex="1" parent="1">
          <mxGeometry x="80" y="570" width="720" height="60" as="geometry" />
        </mxCell>
      </root>
    </mxGraphModel>
  </diagram>
</mxfile>
